<svg width="21" height="36" viewBox="0 0 21 36" fill="none" xmlns="http://www.w3.org/2000/svg">
<path fill-rule="evenodd" clip-rule="evenodd" d="M10.5 0C11.3048 0 12.0388 0.47295 12.3894 1.2177L20.792 19.0379L20.9816 19.44H16.314L14.9557 16.56H6.04388L4.68604 19.44H0.0179384L0.208039 19.0375L8.61036 1.2177C8.96169 0.47295 9.69518 0 10.5 0ZM7.74145 12.9602H13.2583L10.5 7.11022L7.74145 12.9602ZM16.7976 25.56H21C20.8736 31.3747 16.1941 36 10.5 36C4.80636 36 0.126224 31.3747 0 25.56H4.20193C4.30059 28.2076 6.01084 30.467 8.39751 31.3189V22.6802C8.39751 21.4873 9.33795 20.52 10.4978 20.52C11.6577 20.52 12.5981 21.4873 12.5981 22.6802V31.3202C14.9872 30.4697 16.6994 28.2096 16.7976 25.56Z" fill="white"/>
</svg>
