<svg width="46" height="46" viewBox="0 0 46 46" fill="none" xmlns="http://www.w3.org/2000/svg">
<path d="M33.8975 24.7608C33.8472 19.7042 38.021 17.279 38.2076 17.1565C35.8619 13.7267 32.2074 13.2561 30.9067 13.2026C27.7991 12.887 24.84 15.0331 23.2634 15.0331C21.6902 15.0331 19.2544 13.2488 16.6774 13.2943C13.2874 13.3446 10.1628 15.2659 8.41829 18.3005C4.89768 24.4079 7.51765 33.4589 10.9482 38.4156C12.6253 40.8385 14.6254 43.5647 17.2494 43.4649C19.7785 43.3651 20.7327 41.8292 23.79 41.8292C26.8473 41.8292 27.7058 43.4649 30.3809 43.4138C33.1007 43.3643 34.8249 40.9447 36.4882 38.5122C38.4137 35.6975 39.2064 32.972 39.2535 32.8341C39.1942 32.8065 33.9519 30.7983 33.8975 24.7608Z" fill="white"/>
<path d="M28.8708 9.92228C30.2623 8.23297 31.2051 5.88562 30.9487 3.54883C28.9405 3.62997 26.5096 4.88356 25.0678 6.57125C23.776 8.06907 22.6466 10.4537 22.9492 12.7483C25.1895 12.922 27.4744 11.6083 28.8708 9.92228Z" fill="white"/>
</svg>
