<svg width="42" height="42" viewBox="0 0 42 42" fill="none" xmlns="http://www.w3.org/2000/svg">
<g clip-path="url(#clip0)">
<path fill-rule="evenodd" clip-rule="evenodd" d="M36.8686 0C39.7007 0 42 2.29934 42 5.13138V36.8686C42 39.7007 39.7007 42 36.8686 42H28.1349V26.1749H33.5982L34.6377 19.3974H28.1349V14.9992C28.1349 13.145 29.0432 11.3376 31.9559 11.3376H34.9125V5.56754C34.9125 5.56754 32.2293 5.10964 29.664 5.10964C24.3083 5.10964 20.8079 8.35554 20.8079 14.2318V19.3974H14.8546V26.1749H20.8079V42H5.13138C2.29934 42 0 39.7007 0 36.8686V5.13138C0 2.29934 2.29925 0 5.13138 0H36.8686V0Z" fill="white"/>
</g>
<defs>
<clipPath id="clip0">
<rect width="42" height="42" fill="white"/>
</clipPath>
</defs>
</svg>
