<svg width="41" height="41" viewBox="0 0 41 41" fill="none" xmlns="http://www.w3.org/2000/svg">
<path fill-rule="evenodd" clip-rule="evenodd" d="M8.83626 20.4995C8.83626 19.1679 9.05728 17.8912 9.45222 16.6938L2.54308 11.418C1.19649 14.1518 0.437988 17.2326 0.437988 20.4995C0.437988 23.7638 1.19585 26.8423 2.5402 29.5746L9.4455 24.2884C9.05439 23.0966 8.83626 21.8246 8.83626 20.4995Z" fill="#FBBC05"/>
<path fill-rule="evenodd" clip-rule="evenodd" d="M20.967 8.38642C23.8598 8.38642 26.4726 9.41142 28.5254 11.0886L34.4973 5.125C30.8583 1.95679 26.1926 0 20.967 0C12.8541 0 5.88159 4.63941 2.54297 11.4185L9.45179 16.6944C11.0437 11.8621 15.5816 8.38642 20.967 8.38642Z" fill="#EA4335"/>
<path fill-rule="evenodd" clip-rule="evenodd" d="M20.967 32.6136C15.5819 32.6136 11.0441 29.1379 9.45211 24.3057L2.54297 29.5806C5.88159 36.3606 12.8541 41 20.967 41C25.9742 41 30.7548 39.222 34.3426 35.8907L27.7846 30.8208C25.9341 31.9864 23.6038 32.6136 20.967 32.6136Z" fill="#34A853"/>
<path fill-rule="evenodd" clip-rule="evenodd" d="M40.5626 20.4996C40.5626 19.2882 40.3758 17.9836 40.0959 16.7725H20.9668V24.6928H31.9779C31.4272 27.3934 29.9288 29.4693 27.7843 30.8204L34.3424 35.8903C38.1112 32.3925 40.5626 27.1817 40.5626 20.4996Z" fill="#4285F4"/>
</svg>
