<?xml version="1.0" encoding="UTF-8"?>
<svg width="224px" height="58px" viewBox="0 0 224 58" version="1.1" xmlns="http://www.w3.org/2000/svg" xmlns:xlink="http://www.w3.org/1999/xlink">
    <!-- Generator: Sketch 58 (84663) - https://sketch.com -->
    <title>Group 3</title>
    <desc>Created with Sketch.</desc>
    <g id="Page-1" stroke="none" stroke-width="1" fill="none" fill-rule="evenodd">
        <g id="Group-2" transform="translate(-576.000000, -136.000000)">
            <g id="Group-3" transform="translate(576.000000, 132.000000)">
                <text id="lollipop" font-family="SIL-Hei-Med-Jian, Hei" font-size="64" font-weight="normal" letter-spacing="-4.30769231" fill="#4A494A">
                    <tspan x="35" y="51">lollipop</tspan>
                </text>
                <path d="M14.7958143,50.856373 C13.1118708,50.6166434 12.6704487,50.5207516 12.5723549,50.3769138 C12.523308,50.297004 12.3107715,50.2330761 12.0982349,50.2330761 C11.8856984,50.2330761 11.6568128,50.1691482 11.6077659,50.0732564 C11.558719,49.9933465 11.3952294,49.9134367 11.2644377,49.9134367 C10.8720625,49.9134367 8.63225411,48.8106806 7.53687338,48.1074739 C6.29435196,47.2604294 4.52866362,45.6462502 3.62947048,44.4955483 C3.25344426,44.0001072 2.91011597,43.5685939 2.86106907,43.520648 C2.69757941,43.3608283 2.20711043,42.4658379 1.61854765,41.283172 C0.80109934,39.6210469 0.80109934,39.6210469 0.376026221,38.0068678 C0.0490468984,36.776256 3.55271368e-15,36.1689411 3.55271368e-15,33.8515552 C3.55271368e-15,30.7190887 0.29428139,29.2647293 1.40601109,26.9473434 C1.76568834,26.2121727 2.04362077,25.5569119 2.04362077,25.4610201 C2.04362077,25.3811102 2.1253656,25.3012003 2.20711043,25.3012003 C2.30520422,25.3012003 2.37060009,25.1893265 2.37060009,25.0614708 C2.37060009,24.933615 2.45234492,24.8217412 2.53408975,24.8217412 C2.63218355,24.8217412 2.69757941,24.7098674 2.69757941,24.5820116 C2.69757941,24.4541558 2.77932424,24.342282 2.86106907,24.342282 C2.95916287,24.342282 3.02455873,24.2463902 3.02455873,24.1185344 C3.02455873,23.9906787 3.07360563,23.8628229 3.15535046,23.8308589 C3.22074633,23.814877 3.62947048,23.3673818 4.0545436,22.8719407 C5.9346747,20.6664286 7.76575891,19.3878708 10.8720625,18.0453852 C11.8039535,17.6458359 13.520595,17.1503948 13.9293191,17.1503948 C14.1582047,17.1503948 14.468835,17.0704849 14.6486736,16.9905751 C14.942955,16.8307554 14.959304,16.5910258 14.959304,11.3169752 C14.959304,5.38766368 14.942955,5.46757354 15.8421482,4.66847496 C17.1010186,3.54973694 18.81766,3.86937637 19.6841552,5.37168171 C20.0111345,5.93105071 20.0274835,6.2187262 20.0601814,11.428849 L20.1092283,16.8946833 L20.6814421,17.038521 C22.7250629,17.5179802 23.6079071,17.8216376 25.1610589,18.5568083 C26.4035803,19.1481413 27.3354714,19.6915283 28.3491073,20.426699 C28.7087845,20.6664286 31.0303377,22.9358685 31.3246191,23.3194359 C33.0412605,25.508966 34.0221985,27.5386764 34.6761571,30.3355214 C35.1339282,32.237376 35.1012303,35.9132295 34.6107613,37.8470481 C34.4145737,38.6461467 34.1856882,39.4292633 34.1039433,39.605065 C34.0221985,39.7808666 33.8096619,40.2603258 33.6134743,40.691839 C32.8614219,42.3379821 32.5671405,42.8813691 32.4363488,42.8813691 C32.354604,42.8813691 32.2892081,42.977261 32.2892081,43.0891348 C32.2892081,43.2010086 32.1420674,43.4567201 31.9622288,43.6485038 C31.7823901,43.8402874 31.6352494,44.0320711 31.6352494,44.080017 C31.6352494,44.4156384 28.8722742,47.0846277 27.7114976,47.8677443 C26.4853251,48.6988068 24.621543,49.6417431 23.5098133,50.0093285 C23.0683912,50.1371843 22.5779222,50.312986 22.3980836,50.3928958 C21.1228642,50.9362828 17.0846696,51.1760124 14.7958143,50.856373 Z M18.8813331,45.8664581 C20.2965406,45.622757 21.7921577,45.1191081 23.0626281,44.4692386 C24.5421632,43.7218886 24.9763746,43.3969539 26.2307631,42.1459551 C27.919363,40.4400476 29.0611781,38.5229325 29.7687819,36.134662 C30.0743381,35.1598577 30.0743381,30.5457842 29.7848638,30.2533429 C29.6883724,30.1558625 29.5918809,29.9284081 29.5918809,29.7659407 C29.5918809,29.6034734 29.5275533,29.3435256 29.4471438,29.1810582 C29.3667343,29.0348375 29.1415876,28.5474354 28.9325229,28.0925267 C28.1766734,26.4516062 26.8901211,24.8269324 25.6678965,23.9983488 C25.2980127,23.738401 24.912047,23.4622064 24.8155556,23.3484792 C24.2687708,22.8448304 21.2132091,22 19.9105749,22 C18.2863027,22 15.9705086,22.6011293 14.5713829,23.3972195 C13.7672878,23.8521281 11.9017869,25.7854899 11.9017869,26.1429182 C11.9017869,26.2728921 11.8535412,26.3866192 11.7731317,26.3866192 C11.7088041,26.3866192 11.564067,26.6303203 11.4514936,26.9227616 C11.3228384,27.1989561 11.1781013,27.5888779 11.0976918,27.767592 C10.6313165,28.9536038 10.5026613,31.6343156 10.8564632,33.1290155 C11.2745927,34.9648969 12.8506193,36.9145054 14.555301,37.7430891 C17.8038456,39.3190227 21.1327996,38.3442184 22.6284167,35.3548186 C23.0143824,34.5749752 23.07871,34.2825339 23.0626281,33.1452622 C23.0465462,32.2029514 22.9500547,31.6180689 22.7088262,31.0656798 C22.3550243,30.2370961 21.5991748,29.6359668 20.9398168,29.6359668 C19.8462473,29.6359668 18.7687598,30.6920048 19.1386436,31.423108 C19.2190531,31.6018221 19.3798721,31.8942634 19.4602816,32.0729775 C19.8784111,32.9178079 19.5085274,34.0063393 18.6401046,34.5099882 C17.4178799,35.1923512 15.72928,34.6399621 15.1824953,33.3727166 C14.6678744,32.1867047 14.4266458,30.123369 14.7643658,29.7172005 C14.8286934,29.6197201 14.9895124,29.2785386 15.1020858,28.9211104 C15.4398057,27.9138126 16.6459485,26.6140736 17.739518,26.094178 C19.894493,25.0868802 22.9822185,25.8179834 24.735146,27.767592 C26.1664355,29.3435256 26.9383668,32.170458 26.5524012,34.4287545 C25.9412888,37.9705434 23.7541499,40.6187617 20.3447863,41.9185007 C19.3798721,42.275929 18.9617426,42.3409159 17.2892247,42.3571627 C15.2950686,42.3734094 13.8316154,42.0647214 12.721964,41.3823584 C9.79505756,39.5789705 8.58891479,37.9218032 7.72049199,34.4937415 C7.51142724,33.6489111 7.59183676,29.6197201 7.84914722,27.8813191 C8.04213006,26.6953073 7.96172054,26.2728921 7.54359105,26.1429182 C6.61084064,25.8342302 6.0158102,26.9227616 5.29212454,30.1721092 C5.00265027,31.5205884 4.95440456,32.0729775 5.03481408,33.8276252 C5.1152236,35.6635066 5.37253406,37.2069467 5.77458165,38.1655043 C6.22487495,39.2215422 6.98072442,40.6837486 7.09329775,40.6837486 C7.17370726,40.6837486 7.23803488,40.7487356 7.23803488,40.846216 C7.23803488,41.154904 8.89447095,42.9420452 9.81113946,43.6244082 C12.1912612,45.4115494 16.0991638,46.3701069 18.8813331,45.8664581 Z" id="Shape" fill="#FF6767" fill-rule="nonzero" transform="translate(17.500000, 27.500000) scale(1, -1) translate(-17.500000, -27.500000) "></path>
            </g>
        </g>
    </g>
</svg>