<svg width="49" height="49" viewBox="0 0 49 49" fill="none" xmlns="http://www.w3.org/2000/svg">
<path d="M45.6673 13.0207C44.1021 13.7165 42.4175 14.1858 40.65 14.3959C42.4547 13.3155 43.8385 11.6041 44.491 9.56266C42.803 10.5644 40.9344 11.2913 38.9439 11.6837C37.351 9.98617 35.0805 8.9248 32.5679 8.9248C27.7443 8.9248 23.8333 12.8358 23.8333 17.6603C23.8333 18.344 23.9102 19.0104 24.0597 19.6508C16.7996 19.2861 10.3622 15.809 6.05368 10.5238C5.30173 11.8133 4.87131 13.3137 4.87131 14.9162C4.87131 17.9464 6.41323 20.6206 8.75722 22.1867C7.32593 22.1409 5.97848 21.7476 4.80043 21.0933C4.79957 21.1296 4.79957 21.1668 4.79957 21.204C4.79957 25.4356 7.81081 28.9654 11.8073 29.7692C11.0744 29.968 10.3026 30.0752 9.50571 30.0752C8.94218 30.0752 8.39507 30.0207 7.8618 29.9179C8.97416 33.3881 12.1997 35.9144 16.0217 35.9844C13.0321 38.3276 9.26629 39.7243 5.17295 39.7243C4.46854 39.7243 3.77278 39.6828 3.08911 39.6016C6.95601 42.0812 11.5472 43.5264 16.4798 43.5264C32.5481 43.5264 41.3337 30.2161 41.3337 18.6724C41.3337 18.2939 41.3259 17.9162 41.3095 17.5411C43.0156 16.312 44.4971 14.7727 45.6673 13.0207Z" fill="white"/>
</svg>
